<svg width="1017" height="303" viewBox="0 0 1017 303" fill="none" xmlns="http://www.w3.org/2000/svg">
<g clip-path="url(#clip0_586_1862)">
<path d="M250.481 273.687H234.359C234.235 273.687 234.171 273.747 234.171 273.872L232.908 283.944C232.908 284.069 232.968 284.129 233.092 284.129H244.156C244.437 284.129 244.576 284.285 244.576 284.598L244.202 287.548C244.138 287.861 243.967 288.017 243.686 288.017H232.577C232.452 288.017 232.391 288.082 232.391 288.205L231.124 298.509C231.124 298.634 231.17 298.696 231.267 298.696H247.434C247.747 298.696 247.872 298.854 247.811 299.165L247.434 302.116C247.434 302.241 247.387 302.348 247.296 302.442C247.199 302.537 247.075 302.586 246.918 302.586H226.721C226.44 302.586 226.298 302.428 226.298 302.116L230.234 270.265C230.298 269.955 230.469 269.795 230.75 269.795H250.951C251.105 269.795 251.223 269.844 251.301 269.936C251.38 270.031 251.402 270.14 251.371 270.265L250.998 273.214C250.933 273.527 250.762 273.687 250.481 273.687Z" fill="#ED5021"/>
<path d="M256.456 301.161C254.971 299.958 254.041 298.327 253.667 296.265C253.542 295.546 253.479 294.69 253.479 293.687C253.479 292.627 253.542 291.597 253.667 290.599C253.948 288.35 254.414 286.461 255.073 284.932C255.884 282.93 257.197 281.34 259.01 280.152C260.822 278.966 262.868 278.372 265.149 278.372C267.428 278.372 269.342 278.966 270.89 280.152C272.435 281.34 273.351 282.839 273.632 284.649C273.757 285.178 273.818 285.697 273.818 286.196C273.785 286.477 273.632 286.631 273.351 286.662L269.881 287.18H269.788C269.538 287.18 269.414 287.037 269.414 286.756L269.318 286.008C269.225 284.947 268.756 284.055 267.913 283.335C267.069 282.62 265.975 282.26 264.634 282.26C263.288 282.26 262.132 282.62 261.164 283.335C260.195 284.055 259.493 285.008 259.056 286.196C258.682 287.101 258.351 288.584 258.07 290.644C257.945 291.674 257.884 292.642 257.884 293.548C257.884 293.986 257.914 294.486 257.977 295.046C258.134 296.296 258.604 297.28 259.383 297.999C260.163 298.714 261.227 299.073 262.569 299.073C263.883 299.073 265.062 298.708 266.109 297.974C267.155 297.24 267.866 296.311 268.243 295.187L268.335 294.955C268.335 294.861 268.35 294.796 268.382 294.767C268.414 294.642 268.475 294.556 268.57 294.511C268.663 294.462 268.774 294.456 268.898 294.486L272.226 295.046C272.476 295.111 272.583 295.235 272.553 295.421C272.553 295.515 272.537 295.579 272.507 295.607C272.476 295.765 272.365 296.11 272.179 296.64C271.397 298.544 270.092 300.073 268.267 301.227C266.436 302.385 264.381 302.965 262.102 302.965C259.822 302.965 257.937 302.361 256.456 301.161Z" fill="#ED5021"/>
<path d="M276.866 302.116L280.756 270.265C280.819 269.955 280.991 269.795 281.272 269.795H284.739C285.052 269.795 285.177 269.955 285.115 270.265L281.225 302.116C281.162 302.428 280.991 302.586 280.71 302.586H277.242C276.929 302.586 276.805 302.428 276.866 302.116Z" fill="#ED5021"/>
<path d="M295.73 283.259C294.806 283.929 294.115 284.829 293.644 285.952C293.363 286.638 293.129 287.512 292.939 288.575C292.911 288.7 292.957 288.762 293.082 288.762H303.487C303.611 288.762 303.675 288.7 303.675 288.575C303.736 287.823 303.768 287.327 303.768 287.077C303.768 285.639 303.354 284.475 302.524 283.585C301.698 282.696 300.55 282.251 299.08 282.251C297.77 282.251 296.651 282.586 295.73 283.259ZM307.658 291.994C307.626 292.307 307.452 292.463 307.143 292.463H292.613C292.488 292.463 292.428 292.524 292.428 292.649C292.363 293.398 292.331 293.898 292.331 294.148C292.331 294.461 292.363 294.772 292.428 295.086C292.581 296.336 293.119 297.31 294.042 298.013C294.964 298.714 296.207 299.064 297.77 299.064C299.987 299.064 301.831 298.115 303.298 296.211C303.487 295.896 303.69 295.851 303.908 296.07L306.298 297.846C306.487 298.035 306.502 298.24 306.345 298.459C305.313 299.894 303.971 301.011 302.315 301.806C300.657 302.602 298.845 303.001 296.877 303.001C294.659 303.001 292.862 302.511 291.488 301.527C290.114 300.542 289.146 299.113 288.582 297.24C288.269 296.18 288.113 294.928 288.113 293.492C288.113 292.899 288.176 291.914 288.301 290.541C288.457 289.356 288.621 288.356 288.795 287.543C288.966 286.733 289.192 285.999 289.473 285.343C290.284 283.187 291.583 281.486 293.363 280.238C295.144 278.988 297.207 278.363 299.549 278.363C302.55 278.363 304.712 279.129 306.041 280.658C307.368 282.191 308.032 284.421 308.032 287.357C308.032 288.45 307.907 289.995 307.658 291.994Z" fill="#ED5021"/>
<path d="M315.413 301.161C313.928 299.958 312.998 298.327 312.623 296.265C312.499 295.546 312.435 294.69 312.435 293.687C312.435 292.627 312.499 291.597 312.623 290.599C312.905 288.35 313.372 286.461 314.029 284.932C314.841 282.93 316.154 281.34 317.967 280.152C319.778 278.966 321.825 278.372 324.106 278.372C326.386 278.372 328.298 278.966 329.846 280.152C331.391 281.34 332.308 282.839 332.589 284.649C332.713 285.178 332.775 285.697 332.775 286.196C332.743 286.477 332.589 286.631 332.308 286.662L328.837 287.18H328.744C328.496 287.18 328.371 287.037 328.371 286.756L328.275 286.008C328.182 284.947 327.713 284.055 326.869 283.335C326.026 282.62 324.933 282.26 323.591 282.26C322.245 282.26 321.089 282.62 320.12 283.335C319.152 284.055 318.45 285.008 318.012 286.196C317.638 287.101 317.309 288.584 317.027 290.644C316.902 291.674 316.842 292.642 316.842 293.548C316.842 293.986 316.87 294.486 316.934 295.046C317.091 296.296 317.561 297.28 318.341 297.999C319.121 298.714 320.184 299.073 321.526 299.073C322.839 299.073 324.019 298.708 325.066 297.974C326.113 297.24 326.823 296.311 327.2 295.187L327.293 294.955C327.293 294.861 327.307 294.796 327.339 294.767C327.37 294.642 327.431 294.556 327.527 294.511C327.62 294.462 327.73 294.456 327.855 294.486L331.183 295.046C331.432 295.111 331.539 295.235 331.51 295.421C331.51 295.515 331.493 295.579 331.464 295.607C331.432 295.765 331.322 296.11 331.137 296.64C330.354 298.544 329.049 300.073 327.223 301.227C325.394 302.385 323.338 302.965 321.059 302.965C318.778 302.965 316.894 302.361 315.413 301.161Z" fill="#ED5021"/>
<path d="M349.182 282.442H344.26C344.135 282.442 344.074 282.507 344.074 282.632L342.526 295.043C342.494 295.262 342.479 295.558 342.479 295.933C342.479 296.935 342.738 297.65 343.253 298.089C343.769 298.525 344.558 298.745 345.619 298.745H346.933C347.089 298.745 347.206 298.79 347.283 298.884C347.362 298.976 347.385 299.089 347.353 299.214L346.979 302.116C346.979 302.428 346.822 302.586 346.509 302.586C345.509 302.647 344.807 302.677 344.401 302.677C342.308 302.677 340.729 302.342 339.667 301.672C338.603 300.999 338.074 299.774 338.074 297.995C338.074 297.712 338.104 297.261 338.169 296.636L339.903 282.632C339.903 282.507 339.838 282.442 339.715 282.442H336.948C336.635 282.442 336.51 282.286 336.575 281.976L336.902 279.213C336.965 278.9 337.137 278.744 337.418 278.744H340.184C340.309 278.744 340.369 278.683 340.369 278.554L341.073 273.029C341.135 272.717 341.308 272.563 341.59 272.563H344.868C344.993 272.563 345.094 272.608 345.175 272.703C345.252 272.793 345.274 272.904 345.245 273.029L344.587 278.554C344.558 278.589 344.558 278.628 344.587 278.673C344.619 278.72 344.666 278.744 344.729 278.744H349.649C349.962 278.744 350.086 278.9 350.025 279.213L349.698 281.976C349.635 282.286 349.463 282.442 349.182 282.442Z" fill="#ED5021"/>
<path d="M356.676 274.294C356.207 273.828 355.971 273.216 355.971 272.47C355.971 271.47 356.292 270.642 356.934 269.986C357.572 269.332 358.363 269.002 359.299 269.002C360.079 269.002 360.706 269.228 361.175 269.682C361.641 270.137 361.877 270.752 361.877 271.531C361.877 272.5 361.548 273.32 360.894 273.99C360.236 274.663 359.456 274.998 358.549 274.998C357.769 274.998 357.143 274.763 356.676 274.294ZM352.974 302.07L355.785 279.214C355.785 279.089 355.832 278.98 355.925 278.886C356.018 278.792 356.128 278.745 356.252 278.745H359.722C360.004 278.745 360.142 278.901 360.142 279.214L357.331 302.07C357.267 302.383 357.096 302.539 356.815 302.539H353.348C353.035 302.539 352.91 302.383 352.974 302.07Z" fill="#ED5021"/>
<path d="M367.666 301.161C366.183 299.958 365.252 298.327 364.878 296.265C364.754 295.546 364.689 294.69 364.689 293.687C364.689 292.627 364.754 291.597 364.878 290.599C365.159 288.35 365.625 286.461 366.284 284.932C367.096 282.93 368.409 281.34 370.221 280.152C372.033 278.966 374.08 278.372 376.361 278.372C378.639 278.372 380.553 278.966 382.101 280.152C383.646 281.34 384.562 282.839 384.843 284.649C384.968 285.178 385.029 285.697 385.029 286.196C384.996 286.477 384.843 286.631 384.562 286.662L381.092 287.18H380.999C380.75 287.18 380.625 287.037 380.625 286.756L380.53 286.008C380.437 284.947 379.967 284.055 379.124 283.335C378.279 282.62 377.188 282.26 375.846 282.26C374.5 282.26 373.343 282.62 372.375 283.335C371.406 284.055 370.705 285.008 370.267 286.196C369.893 287.101 369.563 288.584 369.282 290.644C369.157 291.674 369.096 292.642 369.096 293.548C369.096 293.986 369.125 294.486 369.189 295.046C369.345 296.296 369.815 297.28 370.594 297.999C371.374 298.714 372.439 299.073 373.781 299.073C375.094 299.073 376.274 298.708 377.321 297.974C378.366 297.24 379.077 296.311 379.455 295.187L379.546 294.955C379.546 294.861 379.562 294.796 379.593 294.767C379.625 294.642 379.686 294.556 379.782 294.511C379.875 294.462 379.985 294.456 380.11 294.486L383.438 295.046C383.687 295.111 383.794 295.235 383.765 295.421C383.765 295.515 383.748 295.579 383.719 295.607C383.687 295.765 383.576 296.11 383.392 296.64C382.608 298.544 381.304 300.073 379.477 301.227C377.648 302.385 375.593 302.965 373.314 302.965C371.033 302.965 369.148 302.361 367.666 301.161Z" fill="#ED5021"/>
<path d="M421.866 273.687H405.745C405.62 273.687 405.557 273.747 405.557 273.872L404.292 283.944C404.292 284.069 404.353 284.129 404.478 284.129H415.541C415.822 284.129 415.962 284.285 415.962 284.598L415.588 287.548C415.524 287.861 415.352 288.017 415.071 288.017H403.962C403.837 288.017 403.777 288.082 403.777 288.205L402.51 298.509C402.51 298.634 402.556 298.696 402.651 298.696H418.819C419.133 298.696 419.258 298.854 419.197 299.165L418.819 302.116C418.819 302.241 418.773 302.348 418.68 302.442C418.585 302.537 418.46 302.586 418.304 302.586H398.106C397.825 302.586 397.683 302.428 397.683 302.116L401.62 270.265C401.684 269.955 401.855 269.795 402.136 269.795H422.336C422.489 269.795 422.608 269.844 422.687 269.936C422.766 270.031 422.788 270.14 422.756 270.265L422.382 273.214C422.319 273.527 422.147 273.687 421.866 273.687Z" fill="#ED5021"/>
<path d="M424.349 302.116L428.24 270.265C428.304 269.955 428.474 269.795 428.755 269.795H432.223C432.536 269.795 432.661 269.955 432.6 270.265L428.71 302.116C428.646 302.428 428.474 302.586 428.193 302.586H424.726C424.413 302.586 424.289 302.428 424.349 302.116Z" fill="#ED5021"/>
<path d="M443.216 283.259C442.294 283.929 441.601 284.829 441.132 285.952C440.85 286.638 440.615 287.512 440.427 288.575C440.398 288.7 440.444 288.762 440.569 288.762H450.974C451.099 288.762 451.162 288.7 451.162 288.575C451.223 287.823 451.255 287.327 451.255 287.077C451.255 285.639 450.84 284.475 450.012 283.585C449.185 282.696 448.037 282.251 446.567 282.251C445.257 282.251 444.138 282.586 443.216 283.259ZM455.145 291.994C455.113 292.307 454.94 292.463 454.629 292.463H440.1C439.975 292.463 439.914 292.524 439.914 292.649C439.85 293.398 439.817 293.898 439.817 294.148C439.817 294.461 439.85 294.772 439.914 295.086C440.068 296.336 440.607 297.31 441.529 298.013C442.45 298.714 443.695 299.064 445.257 299.064C447.474 299.064 449.318 298.115 450.786 296.211C450.974 295.896 451.176 295.851 451.394 296.07L453.786 297.846C453.974 298.035 453.989 298.24 453.831 298.459C452.8 299.894 451.458 301.011 449.802 301.806C448.145 302.602 446.332 303.001 444.364 303.001C442.145 303.001 440.349 302.511 438.975 301.527C437.6 300.542 436.632 299.113 436.07 297.24C435.757 296.18 435.6 294.928 435.6 293.492C435.6 292.899 435.664 291.914 435.788 290.541C435.945 289.356 436.107 288.356 436.281 287.543C436.452 286.733 436.679 285.999 436.96 285.343C437.772 283.187 439.07 281.486 440.85 280.238C442.63 278.988 444.695 278.363 447.037 278.363C450.038 278.363 452.2 279.129 453.528 280.658C454.856 282.191 455.519 284.421 455.519 287.357C455.519 288.45 455.395 289.995 455.145 291.994Z" fill="#ED5021"/>
<path d="M462.898 301.161C461.414 299.958 460.483 298.327 460.109 296.265C459.984 295.546 459.921 294.69 459.921 293.687C459.921 292.627 459.984 291.597 460.109 290.599C460.39 288.35 460.857 286.461 461.515 284.932C462.328 282.93 463.641 281.34 465.452 280.152C467.264 278.966 469.311 278.372 471.593 278.372C473.871 278.372 475.784 278.966 477.332 280.152C478.878 281.34 479.794 282.839 480.075 284.649C480.2 285.178 480.26 285.697 480.26 286.196C480.228 286.477 480.075 286.631 479.794 286.662L476.324 287.18H476.231C475.982 287.18 475.857 287.037 475.857 286.756L475.761 286.008C475.669 284.947 475.198 284.055 474.355 283.335C473.511 282.62 472.419 282.26 471.076 282.26C469.732 282.26 468.574 282.62 467.606 283.335C466.638 284.055 465.937 285.008 465.498 286.196C465.125 287.101 464.795 288.584 464.513 290.644C464.389 291.674 464.328 292.642 464.328 293.548C464.328 293.986 464.357 294.486 464.42 295.046C464.577 296.296 465.046 297.28 465.826 297.999C466.606 298.714 467.67 299.073 469.013 299.073C470.326 299.073 471.506 298.708 472.553 297.974C473.598 297.24 474.309 296.311 474.686 295.187L474.778 294.955C474.778 294.861 474.792 294.796 474.824 294.767C474.856 294.642 474.917 294.556 475.013 294.511C475.107 294.462 475.216 294.456 475.341 294.486L478.669 295.046C478.918 295.111 479.025 295.235 478.997 295.421C478.997 295.515 478.979 295.579 478.95 295.607C478.918 295.765 478.807 296.11 478.623 296.64C477.84 298.544 476.535 300.073 474.709 301.227C472.88 302.385 470.825 302.965 468.545 302.965C466.264 302.965 464.379 302.361 462.898 301.161Z" fill="#ED5021"/>
<path d="M496.666 282.442H491.744C491.62 282.442 491.558 282.507 491.558 282.632L490.01 295.043C489.978 295.262 489.963 295.558 489.963 295.933C489.963 296.935 490.222 297.65 490.737 298.089C491.254 298.525 492.043 298.745 493.103 298.745H494.417C494.573 298.745 494.689 298.79 494.767 298.884C494.845 298.976 494.869 299.089 494.837 299.214L494.463 302.116C494.463 302.428 494.306 302.586 493.994 302.586C492.994 302.647 492.291 302.677 491.886 302.677C489.793 302.677 488.213 302.342 487.152 301.672C486.087 300.999 485.558 299.774 485.558 297.995C485.558 297.712 485.59 297.261 485.653 296.636L487.387 282.632C487.387 282.507 487.322 282.442 487.198 282.442H484.432C484.119 282.442 483.994 282.286 484.058 281.976L484.386 279.213C484.45 278.9 484.621 278.744 484.903 278.744H487.668C487.793 278.744 487.853 278.683 487.853 278.554L488.558 273.029C488.619 272.717 488.793 272.563 489.074 272.563H492.352C492.477 272.563 492.578 272.608 492.66 272.703C492.735 272.793 492.758 272.904 492.73 273.029L492.071 278.554C492.043 278.589 492.043 278.628 492.071 278.673C492.103 278.72 492.15 278.744 492.214 278.744H497.133C497.446 278.744 497.571 278.9 497.51 279.213L497.183 281.976C497.119 282.286 496.947 282.442 496.666 282.442Z" fill="#ED5021"/>
<path d="M515.696 279.118C515.913 279.212 515.961 279.399 515.836 279.679L514.664 283.192C514.571 283.475 514.383 283.567 514.102 283.475C513.603 283.255 513.009 283.145 512.322 283.145L511.663 283.192C510.259 283.255 509.032 283.764 507.985 284.715C506.939 285.668 506.321 286.908 506.136 288.441L504.449 302.116C504.384 302.428 504.213 302.586 503.932 302.586H500.466C500.152 302.586 500.027 302.428 500.088 302.116L502.901 279.212C502.964 278.899 503.135 278.743 503.416 278.743H506.837C506.993 278.743 507.11 278.79 507.191 278.884C507.266 278.978 507.29 279.087 507.26 279.212L506.932 281.696C506.932 281.787 506.956 281.842 507.003 281.856C507.048 281.875 507.086 281.851 507.118 281.787C508.745 279.603 510.742 278.509 513.12 278.509C514.088 278.509 514.945 278.714 515.696 279.118Z" fill="#ED5021"/>
<path d="M529.752 298.023C530.752 297.319 531.517 296.329 532.047 295.046C532.544 293.706 532.892 292.238 533.078 290.644C533.203 289.27 533.267 288.305 533.267 287.741C533.267 287.336 533.236 286.852 533.172 286.287C532.922 285.008 532.383 284.014 531.554 283.315C530.728 282.61 529.673 282.26 528.392 282.26C527.142 282.26 526.018 282.61 525.017 283.315C524.017 284.014 523.237 285.008 522.675 286.287C522.237 287.351 521.892 288.804 521.643 290.644C521.55 291.488 521.504 292.298 521.504 293.078C521.504 293.831 521.55 294.486 521.643 295.046C521.831 296.296 522.347 297.28 523.191 297.999C524.034 298.714 525.095 299.073 526.376 299.073C527.626 299.073 528.75 298.724 529.752 298.023ZM520.261 301.206C518.743 300.036 517.784 298.403 517.379 296.311C517.19 295.406 517.097 294.361 517.097 293.173C517.097 292.298 517.143 291.439 517.24 290.599C517.549 288.32 518.05 286.443 518.738 284.977C519.642 282.915 521.002 281.3 522.813 280.128C524.626 278.958 526.689 278.372 528.999 278.372C531.188 278.372 533.017 278.958 534.486 280.128C535.952 281.3 536.906 282.899 537.342 284.932C537.531 285.803 537.626 286.803 537.626 287.926C537.626 288.771 537.577 289.645 537.486 290.55C537.233 292.738 536.736 294.656 535.983 296.311C535.047 298.403 533.687 300.036 531.907 301.206C530.124 302.379 528.128 302.965 525.907 302.965C523.658 302.965 521.776 302.379 520.261 301.206Z" fill="#ED5021"/>
<path d="M560.285 280.264C561.547 281.497 562.184 283.179 562.184 285.299C562.184 285.58 562.151 286.034 562.087 286.658L560.215 302.116C560.185 302.241 560.121 302.348 560.026 302.442C559.935 302.537 559.825 302.586 559.7 302.586H556.231C555.951 302.586 555.807 302.428 555.807 302.116L557.639 287.548C557.667 287.362 557.685 287.082 557.685 286.704C557.685 285.394 557.307 284.334 556.56 283.52C555.807 282.71 554.777 282.302 553.466 282.302C551.997 282.302 550.756 282.786 549.741 283.755C548.723 284.723 548.123 285.973 547.934 287.502L546.156 302.116C546.092 302.428 545.922 302.586 545.638 302.586H542.172C541.858 302.586 541.733 302.428 541.794 302.116L544.608 279.212C544.672 278.899 544.843 278.743 545.123 278.743H548.543C548.702 278.743 548.818 278.79 548.897 278.884C548.973 278.978 548.997 279.087 548.967 279.212L548.732 280.897C548.732 280.962 548.757 281.007 548.802 281.038C548.848 281.071 548.888 281.053 548.921 280.991C550.421 279.274 552.448 278.415 555.012 278.415C557.261 278.415 559.017 279.032 560.285 280.264Z" fill="#ED5021"/>
<path d="M570.527 274.294C570.057 273.828 569.822 273.216 569.822 272.47C569.822 271.47 570.143 270.642 570.783 269.986C571.423 269.332 572.212 269.002 573.148 269.002C573.929 269.002 574.556 269.228 575.026 269.682C575.492 270.137 575.727 270.752 575.727 271.531C575.727 272.5 575.398 273.32 574.745 273.99C574.087 274.663 573.307 274.998 572.398 274.998C571.618 274.998 570.993 274.763 570.527 274.294ZM566.823 302.07L569.636 279.214C569.636 279.089 569.682 278.98 569.774 278.886C569.868 278.792 569.978 278.745 570.103 278.745H573.572C573.855 278.745 573.993 278.901 573.993 279.214L571.182 302.07C571.118 302.383 570.947 302.539 570.664 302.539H567.198C566.884 302.539 566.759 302.383 566.823 302.07Z" fill="#ED5021"/>
<path d="M581.514 301.161C580.03 299.958 579.1 298.327 578.725 296.265C578.6 295.546 578.536 294.69 578.536 293.687C578.536 292.627 578.6 291.597 578.725 290.599C579.006 288.35 579.475 286.461 580.13 284.932C580.944 282.93 582.258 281.34 584.069 280.152C585.88 278.966 587.928 278.372 590.208 278.372C592.488 278.372 594.4 278.966 595.948 280.152C597.494 281.34 598.411 282.839 598.692 284.649C598.817 285.178 598.878 285.697 598.878 286.196C598.844 286.477 598.692 286.631 598.411 286.662L594.939 287.18H594.848C594.598 287.18 594.473 287.037 594.473 286.756L594.378 286.008C594.284 284.947 593.814 284.055 592.973 283.335C592.129 282.62 591.034 282.26 589.693 282.26C588.349 282.26 587.19 282.62 586.224 283.335C585.255 284.055 584.553 285.008 584.115 286.196C583.74 287.101 583.41 288.584 583.13 290.644C583.005 291.674 582.944 292.642 582.944 293.548C582.944 293.986 582.971 294.486 583.035 295.046C583.194 296.296 583.663 297.28 584.444 297.999C585.221 298.714 586.285 299.073 587.629 299.073C588.943 299.073 590.123 298.708 591.168 297.974C592.214 297.24 592.924 296.311 593.302 295.187L593.394 294.955C593.394 294.861 593.409 294.796 593.442 294.767C593.473 294.642 593.534 294.556 593.628 294.511C593.723 294.462 593.833 294.456 593.958 294.486L597.286 295.046C597.533 295.111 597.643 295.235 597.613 295.421C597.613 295.515 597.594 295.579 597.567 295.607C597.533 295.765 597.424 296.11 597.238 296.64C596.457 298.544 595.152 300.073 593.327 301.227C591.495 302.385 589.44 302.965 587.163 302.965C584.88 302.965 582.996 302.361 581.514 301.161Z" fill="#ED5021"/>
<path d="M636.65 269.795H640.119C640.43 269.795 640.555 269.955 640.494 270.265L636.601 302.116C636.537 302.428 636.366 302.586 636.086 302.586H632.62C632.306 302.586 632.181 302.428 632.245 302.116L635.196 278.134C635.196 278.04 635.165 277.979 635.104 277.948C635.04 277.917 634.995 277.948 634.961 278.04L627.231 288.252C627.042 288.441 626.837 288.531 626.621 288.531H624.887C624.698 288.531 624.527 288.441 624.371 288.252L619.076 278.134C619.043 278.04 619.006 278.009 618.958 278.04C618.909 278.07 618.872 278.134 618.839 278.228L615.888 302.116C615.888 302.241 615.839 302.348 615.748 302.442C615.653 302.537 615.543 302.586 615.418 302.586H611.953C611.672 302.586 611.529 302.428 611.529 302.116L615.464 270.265C615.528 269.955 615.702 269.795 615.982 269.795H619.448C619.698 269.795 619.854 269.891 619.918 270.08L626.386 282.35C626.414 282.381 626.466 282.397 626.527 282.397C626.591 282.397 626.636 282.381 626.667 282.35L636.086 270.08C636.242 269.891 636.431 269.795 636.65 269.795Z" fill="#ED5021"/>
<path d="M658.867 293.572C658.992 292.993 659.133 292.049 659.288 290.738C659.477 289.426 659.569 288.32 659.569 287.412C659.569 287.101 659.538 286.662 659.477 286.102C659.322 284.977 658.873 284.055 658.139 283.335C657.407 282.62 656.429 282.26 655.212 282.26C653.932 282.26 652.798 282.62 651.814 283.335C650.829 284.055 650.149 284.993 649.774 286.147C649.558 286.617 649.384 287.131 649.262 287.692C649.134 288.256 648.979 289.24 648.79 290.644C648.604 292.267 648.509 293.347 648.509 293.876C648.509 294.312 648.555 294.751 648.649 295.187C648.744 296.345 649.198 297.28 650.009 297.999C650.82 298.714 651.865 299.073 653.149 299.073C654.399 299.073 655.472 298.708 656.362 297.974C657.252 297.24 657.913 296.311 658.352 295.187C658.569 294.69 658.742 294.15 658.867 293.572ZM661.212 278.747H664.678C664.991 278.747 665.116 278.903 665.055 279.216L662.242 302.12C662.242 302.245 662.196 302.352 662.102 302.446C662.007 302.541 661.882 302.59 661.727 302.59H658.307C658.023 302.59 657.883 302.432 657.883 302.12L658.209 299.497C658.243 299.403 658.227 299.348 658.163 299.333C658.099 299.317 658.054 299.358 658.023 299.452C656.398 301.791 654.213 302.965 651.46 302.965C649.463 302.965 647.79 302.352 646.449 301.137C645.104 299.918 644.29 298.297 644.01 296.265C643.946 295.579 643.918 295.064 643.918 294.72C643.918 293.845 644.025 292.503 644.245 290.689C644.403 289.349 644.583 288.209 644.784 287.272C644.988 286.336 645.26 285.462 645.604 284.649C646.321 282.805 647.494 281.3 649.119 280.128C650.741 278.958 652.603 278.372 654.697 278.372C657.444 278.372 659.273 279.482 660.178 281.7C660.212 281.791 660.251 281.831 660.297 281.815C660.343 281.8 660.382 281.745 660.413 281.651L660.693 279.216C660.757 278.903 660.928 278.747 661.212 278.747Z" fill="#ED5021"/>
<path d="M681.97 282.442H677.047C676.922 282.442 676.861 282.507 676.861 282.632L675.312 295.043C675.282 295.262 675.267 295.558 675.267 295.933C675.267 296.935 675.526 297.65 676.041 298.089C676.556 298.525 677.346 298.745 678.406 298.745H679.72C679.876 298.745 679.991 298.79 680.071 298.884C680.15 298.976 680.171 299.089 680.141 299.214L679.766 302.116C679.766 302.428 679.61 302.586 679.296 302.586C678.297 302.647 677.595 302.677 677.19 302.677C675.096 302.677 673.517 302.342 672.456 301.672C671.392 300.999 670.862 299.774 670.862 297.995C670.862 297.712 670.892 297.261 670.956 296.636L672.691 282.632C672.691 282.507 672.627 282.442 672.502 282.442H669.737C669.423 282.442 669.298 282.286 669.362 281.976L669.688 279.213C669.752 278.9 669.923 278.744 670.206 278.744H672.971C673.096 278.744 673.157 278.683 673.157 278.554L673.861 273.029C673.922 272.717 674.096 272.563 674.376 272.563H677.656C677.781 272.563 677.882 272.608 677.964 272.703C678.037 272.793 678.062 272.904 678.031 273.029L677.373 278.554C677.346 278.589 677.346 278.628 677.373 278.673C677.406 278.72 677.452 278.744 677.516 278.744H682.436C682.75 278.744 682.875 278.9 682.814 279.213L682.485 281.976C682.421 282.286 682.25 282.442 681.97 282.442Z" fill="#ED5021"/>
<path d="M693.003 283.259C692.083 283.929 691.391 284.829 690.921 285.952C690.638 286.638 690.403 287.512 690.217 288.575C690.187 288.7 690.232 288.762 690.357 288.762H700.761C700.886 288.762 700.95 288.7 700.95 288.575C701.011 287.823 701.045 287.327 701.045 287.077C701.045 285.639 700.63 284.475 699.801 283.585C698.975 282.696 697.826 282.251 696.357 282.251C695.046 282.251 693.927 282.586 693.003 283.259ZM704.934 291.994C704.901 292.307 704.727 292.463 704.419 292.463H689.888C689.763 292.463 689.702 292.524 689.702 292.649C689.638 293.398 689.608 293.898 689.608 294.148C689.608 294.461 689.638 294.772 689.702 295.086C689.858 296.336 690.394 297.31 691.318 298.013C692.238 298.714 693.482 299.064 695.046 299.064C697.262 299.064 699.106 298.115 700.572 296.211C700.761 295.896 700.966 295.851 701.182 296.07L703.575 297.846C703.764 298.035 703.776 298.24 703.621 298.459C702.587 299.894 701.246 301.011 699.591 301.806C697.933 302.602 696.122 303.001 694.153 303.001C691.933 303.001 690.138 302.511 688.763 301.527C687.388 300.542 686.422 299.113 685.858 297.24C685.544 296.18 685.389 294.928 685.389 293.492C685.389 292.899 685.453 291.914 685.578 290.541C685.733 289.356 685.895 288.356 686.071 287.543C686.242 286.733 686.468 285.999 686.748 285.343C687.559 283.187 688.858 281.486 690.638 280.238C692.418 278.988 694.482 278.363 696.826 278.363C699.826 278.363 701.99 279.129 703.316 280.658C704.645 282.191 705.309 284.421 705.309 287.357C705.309 288.45 705.184 289.995 704.934 291.994Z" fill="#ED5021"/>
<path d="M724.806 279.118C725.022 279.212 725.071 279.399 724.946 279.679L723.775 283.192C723.681 283.475 723.492 283.567 723.211 283.475C722.711 283.255 722.12 283.145 721.431 283.145L720.773 283.192C719.367 283.255 718.142 283.764 717.093 284.715C716.048 285.668 715.432 286.908 715.246 288.441L713.557 302.116C713.493 302.428 713.323 302.586 713.042 302.586H709.573C709.262 302.586 709.137 302.428 709.198 302.116L712.009 279.212C712.073 278.899 712.243 278.743 712.527 278.743H715.947C716.103 278.743 716.218 278.79 716.301 278.884C716.377 278.978 716.398 279.087 716.371 279.212L716.042 281.696C716.042 281.787 716.066 281.842 716.112 281.856C716.157 281.875 716.197 281.851 716.228 281.787C717.855 279.603 719.852 278.509 722.23 278.509C723.196 278.509 724.056 278.714 724.806 279.118Z" fill="#ED5021"/>
<path d="M730.149 274.294C729.68 273.828 729.445 273.216 729.445 272.47C729.445 271.47 729.765 270.642 730.405 269.986C731.045 269.332 731.835 269.002 732.774 269.002C733.551 269.002 734.179 269.228 734.648 269.682C735.115 270.137 735.35 270.752 735.35 271.531C735.35 272.5 735.023 273.32 734.368 273.99C733.71 274.663 732.929 274.998 732.021 274.998C731.24 274.998 730.616 274.763 730.149 274.294ZM726.445 302.07L729.259 279.214C729.259 279.089 729.305 278.98 729.399 278.886C729.491 278.792 729.6 278.745 729.725 278.745H733.194C733.478 278.745 733.615 278.901 733.615 279.214L730.805 302.07C730.741 302.383 730.57 302.539 730.286 302.539H726.82C726.506 302.539 726.381 302.383 726.445 302.07Z" fill="#ED5021"/>
<path d="M752.971 293.572C753.096 292.993 753.237 292.049 753.392 290.738C753.581 289.426 753.673 288.32 753.673 287.412C753.673 287.101 753.642 286.662 753.581 286.102C753.426 284.977 752.978 284.055 752.246 283.335C751.511 282.62 750.533 282.26 749.316 282.26C748.036 282.26 746.902 282.62 745.918 283.335C744.933 284.055 744.253 284.993 743.878 286.147C743.662 286.617 743.488 287.131 743.366 287.692C743.238 288.256 743.083 289.24 742.894 290.644C742.708 292.267 742.613 293.347 742.613 293.876C742.613 294.312 742.659 294.751 742.753 295.187C742.848 296.345 743.302 297.28 744.113 297.999C744.924 298.714 745.969 299.073 747.253 299.073C748.503 299.073 749.576 298.708 750.466 297.974C751.356 297.24 752.017 296.311 752.456 295.187C752.673 294.69 752.846 294.15 752.971 293.572ZM755.316 278.747H758.782C759.095 278.747 759.22 278.903 759.159 279.216L756.346 302.12C756.346 302.245 756.3 302.352 756.206 302.446C756.111 302.541 755.986 302.59 755.831 302.59H752.411C752.127 302.59 751.987 302.432 751.987 302.12L752.313 299.497C752.347 299.403 752.331 299.348 752.267 299.333C752.203 299.317 752.158 299.358 752.127 299.452C750.502 301.791 748.317 302.965 745.564 302.965C743.567 302.965 741.894 302.352 740.553 301.137C739.208 299.918 738.394 298.297 738.114 296.265C738.05 295.579 738.022 295.064 738.022 294.72C738.022 293.845 738.129 292.503 738.349 290.689C738.507 289.349 738.687 288.209 738.888 287.272C739.092 286.336 739.364 285.462 739.708 284.649C740.425 282.805 741.598 281.3 743.223 280.128C744.848 278.958 746.707 278.372 748.801 278.372C751.548 278.372 753.377 279.482 754.282 281.7C754.316 281.791 754.355 281.831 754.401 281.815C754.447 281.8 754.486 281.745 754.517 281.651L754.797 279.216C754.861 278.903 755.032 278.747 755.316 278.747Z" fill="#ED5021"/>
<path d="M762.72 302.116L766.609 270.265C766.673 269.955 766.844 269.795 767.125 269.795H770.594C770.905 269.795 771.029 269.955 770.969 270.265L767.079 302.116C767.015 302.428 766.844 302.586 766.564 302.586H763.095C762.781 302.586 762.659 302.428 762.72 302.116Z" fill="#ED5021"/>
<path d="M775.303 301.221C773.788 300.131 773.029 298.742 773.029 297.053C773.029 296.774 773.044 296.573 773.078 296.444L773.169 295.93C773.169 295.807 773.218 295.696 773.312 295.6C773.404 295.509 773.529 295.46 773.684 295.46H776.922C777.077 295.46 777.193 295.509 777.272 295.6C777.348 295.696 777.373 295.807 777.339 295.93L777.293 296.164C777.202 297.038 777.577 297.803 778.418 298.461C779.263 299.116 780.387 299.445 781.793 299.445C783.262 299.445 784.466 299.107 785.402 298.437C786.338 297.764 786.81 296.932 786.81 295.93C786.81 295.12 786.441 294.504 785.707 294.081C784.975 293.659 783.808 293.212 782.216 292.745C780.622 292.277 779.308 291.808 778.281 291.341C777.248 290.872 776.373 290.218 775.653 289.374C774.934 288.529 774.574 287.47 774.574 286.189C774.574 283.847 775.474 281.979 777.272 280.59C779.068 279.202 781.372 278.507 784.186 278.507C786.652 278.507 788.621 279.061 790.09 280.17C791.557 281.279 792.291 282.723 792.291 284.502C792.291 284.846 792.276 285.096 792.245 285.252L792.197 285.392C792.197 285.517 792.151 285.627 792.059 285.721C791.962 285.812 791.852 285.861 791.727 285.861H788.542C788.386 285.861 788.27 285.812 788.191 285.721C788.112 285.627 788.091 285.517 788.121 285.392L788.17 285.252C788.261 284.347 787.911 283.588 787.112 282.979C786.316 282.369 785.182 282.065 783.716 282.065C782.277 282.065 781.107 282.354 780.198 282.934C779.293 283.512 778.842 284.301 778.842 285.297C778.842 286.111 779.217 286.736 779.967 287.174C780.714 287.609 781.902 288.079 783.527 288.578C785.152 289.044 786.481 289.499 787.511 289.935C788.542 290.373 789.423 291.013 790.16 291.857C790.892 292.7 791.261 293.776 791.261 295.089C791.261 296.649 790.846 298.016 790.017 299.186C789.191 300.356 788.027 301.264 786.527 301.901C785.03 302.543 783.323 302.863 781.421 302.863C778.857 302.863 776.818 302.315 775.303 301.221Z" fill="#ED5021"/>
<path d="M272.674 84.9897H228.431V207.296H365.173V167.102H272.674V124.322H365.173V84.9897H303.365H272.674Z" fill="#1B1918"/>
<path d="M228.431 7.18026L268.652 47.3789H365.173V7.18026H228.431Z" fill="#1B1918"/>
<path d="M447.351 84.9897H403.108V207.296H539.853V167.102H447.351V124.322H539.853V84.9897H478.042H447.351Z" fill="#ED5021"/>
<path d="M403.108 7.18026L443.33 47.3789H539.853V7.18026H403.108Z" fill="#ED5021"/>
<path d="M578.742 42.6704V-0.00021955L684.442 105.639L790.146 -0.00021955V42.6704H790.158V55.205L790.146 55.2169L712.069 133.25L684.442 160.858L656.819 133.25L621.245 97.6946V207.296H578.724V42.6704H578.742Z" fill="#1B1918"/>
<path d="M790.16 207.296H747.642V152.917L790.16 110.425V207.296Z" fill="#1B1918"/>
<path d="M224 238.171H794.59" stroke="#ED5021" stroke-width="1.33333" stroke-miterlimit="10"/>
</g>
<defs>
<clipPath id="clip0_586_1862">
<rect width="1017" height="303" fill="white"/>
</clipPath>
</defs>
</svg>
